HIERARCHY
ROOT Hips
{
	OFFSET 0.00000 0.00000 0.00000
	CHANNELS 6 Xposition Yposition Zposition Zrotation Yrotation Xrotation 
	JOINT LHipJoint
	{
		OFFSET 0 0 0
		CHANNELS 3 Zrotation Yrotation Xrotation
		JOINT LeftHip
		{
			OFFSET 1.41496 -1.84582 0.78394
			CHANNELS 3 Zrotation Yrotation Xrotation
			JOINT LeftKnee
			{
				OFFSET 2.58040 -7.08960 0.00000
				CHANNELS 3 Zrotation Yrotation Xrotation
				JOINT LeftAnkle
				{
					OFFSET 2.64719 -7.27309 0.00000
					CHANNELS 3 Zrotation Yrotation Xrotation
					JOINT LeftToe
					{
						OFFSET 0.20718 -0.56921 2.20259
						CHANNELS 3 Zrotation Yrotation Xrotation
						End Site
						{
							OFFSET 0.00000 -0.00000 1.14243
						}
					}
				}
			}
		}
	}
	JOINT RHipJoint
	{
		OFFSET 0 0 0
		CHANNELS 3 Zrotation Yrotation Xrotation
		JOINT RightHip
		{
			OFFSET -1.40551 -1.84582 0.78394
			CHANNELS 3 Zrotation Yrotation Xrotation
			JOINT RightKnee
			{
				OFFSET -2.56572 -7.04926 0.00000
				CHANNELS 3 Zrotation Yrotation Xrotation
				JOINT RightAnkle
				{
					OFFSET -2.57974 -7.08778 0.00000
					CHANNELS 3 Zrotation Yrotation Xrotation
					JOINT RightToe
					{
						OFFSET -0.26704 -0.73369 2.20815
						CHANNELS 3 Zrotation Yrotation Xrotation
						End Site
						{
							OFFSET -0.00000 -0.00000 1.16246
						}
					}
				}
			}
		}
	}
	JOINT lowerback
	{
		OFFSET 0 0 0
		CHANNELS 3 Zrotation Yrotation Xrotation
		JOINT Chest
		{
			OFFSET -0.04690 2.05196 -0.07017
			CHANNELS 3 Zrotation Yrotation Xrotation
			JOINT Chest2
			{
				OFFSET 0.04085 2.05260 0.00800
				CHANNELS 3 Zrotation Yrotation Xrotation
				JOINT lowerneck
				{
					OFFSET 0 0 0
					CHANNELS 3 Zrotation Yrotation Xrotation
					JOINT Neck
					{
						OFFSET -0.03582 1.80995 0.19301
						CHANNELS 3 Zrotation Yrotation Xrotation
						JOINT Head
						{
							OFFSET 0.00952 1.80195 -0.36389
							CHANNELS 3 Zrotation Yrotation Xrotation
							End Site
							{
								OFFSET 0.00392 1.85062 -0.14494
							}
						}
					}
				}
				JOINT LeftCollar
				{
					OFFSET 0 0 0
					CHANNELS 3 Zrotation Yrotation Xrotation
					JOINT LeftShoulder
					{
						OFFSET 3.55224 1.39726 -0.13667
CHANNELS 3 Zrotation Xrotation Yrotation
						JOINT LeftElbow
						{
OFFSET 0 -5.145070 -0.000000
CHANNELS 3 Zrotation Xrotation Yrotation
							JOINT LeftWrist
							{
OFFSET 0 -3.506460 0.000000
CHANNELS 3 Zrotation Xrotation Yrotation
								JOINT lhand
								{
									OFFSET 0 0 0
CHANNELS 3 Zrotation Xrotation Yrotation
									JOINT LFingers
									{
OFFSET 0 -0.629970 0.000000
CHANNELS 3 Zrotation Xrotation Yrotation
										End Site
										{
OFFSET 0 -0.507900 0.000000
										}
									}
								}
								JOINT LThumb
								{
OFFSET 0 0.000000 0.000000
CHANNELS 3 Zrotation Xrotation Yrotation
									End Site
									{
OFFSET 0 -0.515650 0.515650
									}
								}
							}
						}
					}
				}
				JOINT RightCollar
				{
					OFFSET 0 0 0
					CHANNELS 3 Zrotation Yrotation Xrotation
					JOINT RightShoulder
					{
						OFFSET -3.06467 1.61290 -0.28813
CHANNELS 3 Zrotation Xrotation Yrotation
						JOINT RightElbow
						{
OFFSET 0 -5.232000 -0.000000
CHANNELS 3 Zrotation Xrotation Yrotation
							JOINT RightWrist
							{
OFFSET 0 -3.656410 0.000000
CHANNELS 3 Zrotation Xrotation Yrotation
								JOINT rhand
								{
									OFFSET 0 0 0
CHANNELS 3 Zrotation Xrotation Yrotation
									JOINT RFingers
									{
OFFSET 0 -0.656810 0.000000
CHANNELS 3 Zrotation Xrotation Yrotation
										End Site
										{
OFFSET 0 -0.529530 0.000000
										}
									}
								}
								JOINT RThumb
								{
OFFSET 0 0.000000 0.000000
CHANNELS 3 Zrotation Xrotation Yrotation
									End Site
									{
OFFSET 0 -0.537620 0.537620
									}
								}
							}
						}
					}
				}
			}
		}
	}
}
MOTION
Frames: 5
Frame Time: 0.008333333333333333
-0.933380 22.197419 6.588700 -173.225930 -5.489797 -167.746451 0.000000 0.000000 0.000000 -7.174906 -16.279995 -50.619110 7.946318 16.079150 52.368209 -0.366363 -13.180420 -3.448790 0.299682 -3.515814 -9.718686 0.000000 0.000000 0.000000 31.248230 -1.172951 -8.643306 -6.901094 -15.238019 48.481345 0.000957 -3.021608 2.004053 -2.838373 10.428686 -30.376449 5.679072 1.675688 12.212435 2.952975 2.878870 1.105385 -0.558026 1.186153 -5.551899 -3.794301 -4.090165 -17.562609 3.237111 -5.036343 7.365209 1.145896 -2.365160 5.225523 0.000000 0.000000 0.000000 9.685938 31.920339 -48.647924 103.375877 -59.312577 71.557078 24.706691 -19.090129 16.382037 0.000000 0.000000 0.000000 -7.125000 0.000000 0.000000 -2.041566 12.056981 -1.571135 0.000000 0.000000 0.000000 -6.106749 20.565102 41.660260 -99.598110 -59.642238 -68.301793 -27.422009 -7.147245 -7.607129 0.000000 0.000000 0.000000 7.125000 0.000000 0.000000 -0.436428 21.422583 -0.247932
-0.933530 22.212976 6.405575 -173.296072 -5.458551 -167.867027 0.000000 0.000000 0.000000 -7.469838 -16.228754 -49.803929 7.867090 16.020526 52.082268 -0.380768 -13.176656 -3.139174 0.272184 -3.351942 -9.260454 0.000000 0.000000 0.000000 31.077350 -1.250711 -9.173073 -7.267457 -15.548353 49.870789 0.010628 -3.047278 1.446795 -2.838014 10.428066 -30.374436 5.559125 1.612274 12.182128 2.913608 2.779848 1.101176 -0.515938 1.142736 -5.548271 -3.749695 -4.036596 -17.584250 3.249524 -4.976051 7.426683 1.147876 -2.332583 5.245623 0.000000 0.000000 0.000000 9.444208 31.580966 -48.592107 103.682300 -59.280368 71.820550 24.769605 -19.172426 16.344239 0.000000 0.000000 0.000000 -7.125000 0.000000 0.000000 -1.996649 12.089002 -1.535165 0.000000 0.000000 0.000000 -6.053698 20.838613 41.443970 -98.435815 -59.726115 -67.298744 -27.161750 -6.886981 -7.460864 0.000000 0.000000 0.000000 7.125000 0.000000 0.000000 -0.255475 21.606298 -0.143857
-0.933649 22.224627 6.223592 -173.409786 -5.421085 -167.992711 0.000000 0.000000 0.000000 -7.828896 -16.156056 -48.957015 7.808716 15.976476 51.870280 -0.397247 -13.233593 -2.856723 0.239306 -3.136204 -8.659124 0.000000 0.000000 0.000000 30.846250 -1.348784 -9.777755 -7.666694 -15.855622 51.331482 0.019246 -3.146030 0.800258 -2.844956 10.439677 -30.412660 5.393142 1.544923 12.169281 2.863813 2.671480 1.097026 -0.458163 1.095894 -5.555852 -3.692559 -3.976626 -17.597417 3.253674 -4.909418 7.478872 1.146161 -2.297272 5.260705 0.000000 0.000000 0.000000 9.213746 31.199643 -48.569045 104.040800 -59.240947 72.128617 24.832008 -19.210610 16.304698 0.000000 0.000000 0.000000 -7.125000 0.000000 0.000000 -1.951881 12.123036 -1.499375 0.000000 0.000000 0.000000 -6.006297 21.124655 41.199584 -97.202391 -59.793825 -66.232740 -26.906750 -6.597268 -7.327040 0.000000 0.000000 0.000000 7.125000 0.000000 0.000000 -0.076324 21.773997 -0.043629
-0.933769 22.236278 6.041609 -173.523501 -5.383619 -168.118396 0.000000 0.000000 0.000000 -8.187955 -16.083359 -48.110102 7.750343 15.932427 51.658293 -0.413725 -13.290530 -2.574272 0.206429 -2.920466 -8.057794 0.000000 0.000000 0.000000 30.615151 -1.446858 -10.382437 -8.065932 -16.162890 52.792175 0.027864 -3.244782 0.153721 -2.851899 10.451288 -30.450884 5.227158 1.477572 12.156433 2.814018 2.563112 1.092876 -0.400388 1.049052 -5.563433 -3.635422 -3.916657 -17.610584 3.257824 -4.842785 7.531061 1.144445 -2.261960 5.275787 0.000000 0.000000 0.000000 8.983285 30.818321 -48.545983 104.399300 -59.201526 72.436683 24.894412 -19.248794 16.265157 0.000000 0.000000 0.000000 -7.125000 0.000000 0.000000 -1.907113 12.157071 -1.463584 0.000000 0.000000 0.000000 -5.958896 21.410697 40.955197 -95.968968 -59.861535 -65.166737 -26.651751 -6.307556 -7.193216 0.000000 0.000000 0.000000 7.125000 0.000000 0.000000 0.102826 21.941696 0.056599
-0.934036 22.244117 5.860483 -173.675629 -5.340214 -168.247626 0.000000 0.000000 0.000000 -8.605492 -15.983358 -47.230152 7.704942 15.897804 51.492756 -0.427929 -13.377577 -2.389156 0.174645 -2.675798 -7.378365 0.000000 0.000000 0.000000 30.328232 -1.559293 -11.044769 -8.488307 -16.456034 54.286348 0.034119 -3.404347 -0.520740 -2.852814 10.452823 -30.455954 5.023086 1.407207 12.159276 2.753673 2.447091 1.086924 -0.331325 0.999402 -5.582154 -3.570219 -3.851014 -17.610838 3.260909 -4.770657 7.573617 1.141932 -2.224019 5.285492 0.000000 0.000000 0.000000 8.765737 30.400386 -48.552263 104.797278 -59.155309 72.778377 24.959947 -19.242743 16.224051 0.000000 0.000000 0.000000 -7.125000 0.000000 0.000000 -1.860100 12.192406 -1.426140 0.000000 0.000000 0.000000 -5.920478 21.709090 40.689269 -94.683685 -59.908472 -64.054754 -26.420006 -6.013351 -7.052093 0.000000 0.000000 0.000000 7.125000 0.000000 0.000000 0.265931 22.114478 0.145481
